<svg version="1.1" width="2666.67" height="2666.67" viewBox="0 0 2000 2000" xmlns="http://www.w3.org/2000/svg" xmlns:xlink="http://www.w3.org/1999/xlink" overflow="hidden"><g stroke="none" fill="#000000" transform="matrix(0.1,0,0,-0.1,0,2000)"><path d=" M 14190 16969 C 12769 16873 11681 16204 11119 15080 C 10854 14551 10715 13971 10680 13258 C 10675 13146 10670 12541 10670 11913 L 10670 10770 L 9370 10770 L 8070 10770 L 8070 9265 L 8070 7760 L 9370 7760 L 10670 7760 L 10670 3890 L 10670 20 L 12225 20 L 13780 20 L 13780 3890 L 13780 7760 L 15080 7760 C 15795 7760 16380 7762 16380 7764 C 16380 7774 16760 10719 16764 10743 L 16770 10770 L 15274 10770 L 13779 10770 L 13782 11873 C 13786 12871 13788 12987 13804 13100 C 13851 13428 13944 13644 14110 13811 C 14291 13994 14514 14090 14890 14147 C 14979 14161 15137 14164 15933 14167 L 16870 14171 L 16870 15515 L 16870 16858 L 16843 16864 C 16757 16882 16157 16929 15735 16950 C 15168 16978 14462 16987 14190 16969 Z" stroke="none" stroke-width="1" stroke-dasharray="" stroke-dashoffset="1" fill="#582D41" fill-opacity="1"/></g></svg>