<svg version="1.1" width="2666.67" height="3552" viewBox="0 0 2000 2664" xmlns="http://www.w3.org/2000/svg" xmlns:xlink="http://www.w3.org/1999/xlink" overflow="hidden"><g stroke="none" fill="#000000" transform="matrix(0.1,0,0,-0.1,0,2664)"><path d=" M 3995 25700 C 3530 25664 3083 25527 2690 25302 C 2466 25174 2214 24975 2018 24772 C 1576 24315 1311 23777 1197 23110 L 1176 22985 L 1172 16175 C 1170 11259 1172 9302 1180 9140 C 1262 7485 1731 5988 2566 4718 C 3617 3119 5195 1981 7120 1436 C 7571 1308 8056 1214 8630 1142 L 8845 1116 L 12305 1112 C 15818 1109 15967 1110 16210 1146 C 17200 1290 18048 1908 18503 2815 C 18604 3017 18704 3307 18749 3530 C 18799 3777 18805 3842 18805 4165 C 18804 4436 18802 4493 18782 4617 C 18627 5602 18028 6433 17152 6878 C 16837 7038 16571 7123 16200 7183 L 16065 7204 L 12625 7210 C 9424 7215 9178 7217 9087 7233 C 8666 7307 8364 7425 8100 7618 C 7701 7911 7437 8379 7330 8980 C 7276 9287 7277 9254 7273 10714 L 7269 12073 L 8037 12066 C 8459 12062 9217 12055 9720 12050 C 15651 11991 16169 11987 16315 11998 C 17258 12069 18102 12563 18629 13351 C 19219 14236 19302 15390 18844 16349 C 18490 17089 17857 17654 17086 17919 C 16761 18031 16483 18077 16085 18086 C 15959 18089 14222 18106 12225 18125 C 10229 18144 8297 18163 7933 18166 L 7270 18173 L 7267 20564 C 7264 23194 7268 23003 7204 23300 C 6947 24491 6002 25420 4814 25650 C 4568 25697 4228 25718 3995 25700 Z" stroke="none" stroke-width="1" stroke-dasharray="" stroke-dashoffset="1" fill="#582D41" fill-opacity="1"/></g></svg>