<svg version="1.1" width="430.117" height="430.117" viewBox="0 0 430.117 430.117" xmlns="http://www.w3.org/2000/svg" xmlns:xlink="http://www.w3.org/1999/xlink" id="Capa_1" overflow="hidden"><g><path d=" M 430.117 261.543 L 430.117 420.56 L 337.929 420.56 L 337.929 272.193 C 337.929 234.922 324.595 209.486 291.226 209.486 C 265.753 209.486 250.594 226.628 243.925 243.21 C 241.493 249.138 240.867 257.389 240.867 265.687 L 240.867 420.56 L 148.648 420.56 C 148.648 420.56 149.89 169.275 148.648 143.24 L 240.858 143.24 L 240.858 182.549 C 240.671 182.843 240.428 183.16 240.252 183.445 L 240.858 183.445 L 240.858 182.549 C 253.109 163.68 274.988 136.725 323.96 136.725 C 384.633 136.724 430.117 176.361 430.117 261.543 Z M 52.183 9.558 C 20.635 9.558 0 30.251 0 57.463 C 0 84.082 20.038 105.403 50.959 105.403 L 51.575 105.403 C 83.734 105.403 103.734 84.086 103.734 57.463 C 103.128 30.251 83.734 9.558 52.183 9.558 Z M 5.477 420.56 L 97.661 420.56 L 97.661 143.24 L 5.477 143.24 L 5.477 420.56 Z" id="LinkedIn" stroke="none" stroke-width="1" stroke-dasharray="" stroke-dashoffset="1" fill="#582D41" fill-opacity="1"/></g><g></g><g></g><g></g><g></g><g></g><g></g><g></g><g></g><g></g><g></g><g></g><g></g><g></g><g></g><g></g></svg>