<svg version="1.1" width="48" height="48" viewBox="0 0 48 48" xmlns="http://www.w3.org/2000/svg" xmlns:xlink="http://www.w3.org/1999/xlink" overflow="hidden"><path d=" M 34 24 L 24 24 L 24 34 L 34 34 L 34 24 Z M 32 2 L 32 6 L 16 6 L 16 2 L 12 2 L 12 6 L 10 6 C 7.79 6 6.02 7.79 6.02 10 L 6 38 C 6 40.21 7.79 42 10 42 L 38 42 C 40.21 42 42 40.21 42 38 L 42 10 C 42 7.79 40.21 6 38 6 L 36 6 L 36 2 L 32 2 Z M 38 38 L 10 38 L 10 16 L 38 16 L 38 38 Z" stroke="#01FFFF" stroke-width="1.88235" stroke-dasharray="" stroke-dashoffset="1" stroke-opacity="1" fill="#582D41" fill-opacity="1"/></svg>